<svg xmlns="http://www.w3.org/2000/svg" width="236.248" height="64.573" viewBox="0 0 236.248 64.573">
  <g id="EG-01" transform="translate(-4.869 -2.337)">
    <path id="Path_1858" data-name="Path 1858" d="M39.905,37.675h6.552V1.012L39.905,3.975Z" transform="translate(52.287 1.326)" fill="#574d9b"/>
    <path id="Path_1859" data-name="Path 1859" d="M35.388,5.531V7.663a13.554,13.554,0,1,0,0,22.747v1.428h6.552l.186-26.307ZM27.995,26.2A7.159,7.159,0,1,1,33.063,24.1,7.168,7.168,0,0,1,27.995,26.2Z" transform="translate(18.947 7.182)" fill="#574d9b"/>
    <path id="Path_1860" data-name="Path 1860" d="M58.994,11.958l1.3-6.455H45.86a13.554,13.554,0,0,0-8.039,24.449l-1.379,2.66a13.545,13.545,0,1,0,6.591,1.535l.88-1.721A13.564,13.564,0,0,0,57.38,11.889ZM43.9,46.206a7.168,7.168,0,1,1-7.159-7.159A7.168,7.168,0,0,1,43.9,46.206Zm1.956-20a7.168,7.168,0,1,1,7.159-7.159,7.168,7.168,0,0,1-7.159,7.159Z" transform="translate(30.421 7.21)" fill="#574d9b"/>
    <path id="Path_1861" data-name="Path 1861" d="M10.715,21.449H28.974a13.163,13.163,0,0,0,.225-2.425,13.545,13.545,0,1,0-.792,4.577H21.14a7.139,7.139,0,0,1-5.5,2.582h-.87l-.46-.127H14.1l-.46-.117-.166-.049-.587-.254-.127-.059-.45-.215-.186-.108c-.127-.068-.244-.147-.362-.225l-.186-.117c-.137-.088-.264-.2-.391-.293l-.108-.078-.46-.44-.137-.137c-.108-.108-.2-.215-.293-.323l-.147-.176c-.088-.108-.166-.225-.244-.333l-.127-.176c-.117-.176-.215-.342-.313-.518L9.3,22.329c-.078-.156-.156-.3-.225-.469l-.1-.2-.088-.215h0a7.09,7.09,0,0,1,.137-5.173h0l.088-.166c.059-.137.117-.264.186-.391l.117-.215.205-.342.117-.186c.117-.166.235-.323.362-.479l.108-.117c.1-.117.2-.235.3-.342l.166-.156.3-.284.156-.137c.156-.117.323-.244.489-.352a.459.459,0,0,1,.088-.059l.44-.274.186-.1.4-.186.147-.127a4.733,4.733,0,0,1,.587-.215h.049c.186-.059.381-.108.567-.147h.2l.469-.068h.861a7.168,7.168,0,0,1,6.65,4.342H14.842Z" transform="translate(2.761 7.195)" fill="#574d9b"/>
    <path id="Path_1862" data-name="Path 1862" d="M52.06,21.449H70.318a13.166,13.166,0,0,0,.225-2.425,13.545,13.545,0,1,0-.792,4.577H62.485a7.139,7.139,0,0,1-5.5,2.582h-.87l-.46-.068h-.215L54.984,26l-.166-.049-.6-.215-.127-.059-.45-.215-.186-.108c-.127-.068-.244-.147-.362-.225l-.186-.117c-.137-.088-.264-.2-.391-.293l-.108-.078-.45-.421-.137-.137c-.108-.108-.2-.215-.293-.323l-.147-.176c-.088-.108-.166-.225-.244-.333l-.127-.176c-.117-.176-.215-.342-.313-.518l-.059-.108c-.078-.156-.156-.3-.225-.469l-.088-.215-.088-.215h0a7.09,7.09,0,0,1,.117-5.164h0a1.27,1.27,0,0,0,.078-.166l.2-.391.117-.215a3.962,3.962,0,0,1,.205-.342l.117-.186c.117-.166.235-.323.362-.479l.1-.117c.108-.117.205-.235.313-.342l.166-.156.3-.284.156-.137c.156-.117.323-.244.489-.352a.46.46,0,0,1,.088-.059l.44-.274.186-.1.4-.186.176-.078a4.733,4.733,0,0,1,.587-.215h0c.186-.059.381-.108.567-.147h.2l.469-.068h.861a7.168,7.168,0,0,1,6.679,4.186H56.177Z" transform="translate(56.934 7.195)" fill="#574d9b"/>
    <path id="Path_1863" data-name="Path 1863" d="M63.5,28.16c2.934,0,5.027-2.063,5.027-5.555v-.342a5.868,5.868,0,0,1-4.89,2.65,6.846,6.846,0,0,1-6.963-6.983,6.767,6.767,0,0,1,6.846-6.943,5.78,5.78,0,0,1,5,2.5V11.31h1.663v11.1c0,4.831-2.631,7.4-6.562,7.4-3.032,0-5.359-1.6-5.975-4.107H59.6A3.755,3.755,0,0,0,63.5,28.16Zm0-4.831a5.4,5.4,0,0,0,0-10.758,5.164,5.164,0,0,0-5.056,5.31A5.232,5.232,0,0,0,63.5,23.329Z" transform="translate(74.26 14.39)" fill="#404040"/>
    <path id="Path_1864" data-name="Path 1864" d="M65.113,18.5a4.978,4.978,0,0,0,5.1,4.89,4.89,4.89,0,0,0,4.557-2.934h1.956a6.787,6.787,0,0,1-6.445,4.577A6.953,6.953,0,0,1,63.372,18a6.767,6.767,0,0,1,6.992-7.012c3.912,0,6.787,2.934,6.787,7.432v.127Zm4.978-5.946A4.89,4.89,0,0,0,65.2,17.06H75.284c-.685-2.973-2.416-4.508-5.193-4.508Z" transform="translate(83.028 14.391)" fill="#404040"/>
    <path id="Path_1865" data-name="Path 1865" d="M71.825,11.285V12.8a5.252,5.252,0,0,1,4.2-1.79,5.027,5.027,0,0,1,4.411,2.112c.763,1.164.861,2.572.861,4.508v6.953H79.609V17.133c0-3.051-1.066-4.489-3.794-4.489A3.706,3.706,0,0,0,72.4,14.454a7.1,7.1,0,0,0-.577,3.667v6.464H70.172v-13.3Z" transform="translate(91.944 14.415)" fill="#404040"/>
    <path id="Path_1866" data-name="Path 1866" d="M82.6,10.946a7.051,7.051,0,1,1-6.758,7.09,6.953,6.953,0,0,1,6.758-7.09Zm.127,12.459a5.154,5.154,0,0,0,5.056-5.418,5.1,5.1,0,1,0-10.161,0,5.154,5.154,0,0,0,5.1,5.418Z" transform="translate(99.375 14.334)" fill="#404040"/>
    <path id="Path_1867" data-name="Path 1867" d="M97.831,11.009c3.785,0,5.173,2.308,5.173,6.846v6.709h-1.633V17.532c0-3.227-.87-4.89-3.716-4.89a3.7,3.7,0,0,0-3.374,1.809,7.208,7.208,0,0,0-.567,3.667v6.464H92.1V17.131c0-3-1.164-4.489-3.785-4.489a3.726,3.726,0,0,0-3.423,1.809,7.207,7.207,0,0,0-.567,3.667v6.464H82.643v-13.3h1.731V12.8a5.164,5.164,0,0,1,4.088-1.79,5.349,5.349,0,0,1,4.655,2.357A5.555,5.555,0,0,1,97.831,11.009Z" transform="translate(108.284 14.418)" fill="#404040"/>
    <path id="Path_1868" data-name="Path 1868" d="M92.646,12.016V9.258h1.711v2.758Zm0,1.555h1.711v13.3H92.646Z" transform="translate(121.39 12.13)" fill="#404040"/>
    <path id="Path_1869" data-name="Path 1869" d="M101.055,12.6a5.134,5.134,0,0,0-4.89,5.428,5.1,5.1,0,0,0,5.007,5.369,4.772,4.772,0,0,0,4.528-2.934h1.887a6.454,6.454,0,0,1-6.347,4.528,7.022,7.022,0,0,1,.049-14.043,6.543,6.543,0,0,1,6.3,4.459H105.7a4.89,4.89,0,0,0-4.645-2.807Z" transform="translate(123.484 14.343)" fill="#404040"/>
    <path id="Path_1870" data-name="Path 1870" d="M102.476,20.468h0a2.621,2.621,0,0,0,2.474,2.875,2.2,2.2,0,0,0,2.328-2.2c0-1.418-.792-2.034-2.425-2.631-2.083-.743-3.57-1.389-3.57-3.814a3.785,3.785,0,0,1,3.863-3.736,3.511,3.511,0,0,1,3.795,3.667H107.1a2,2,0,1,0-4.01,0,1.8,1.8,0,0,0,.978,1.731,16.712,16.712,0,0,0,2.65.978,3.579,3.579,0,0,1,2.435,3.667,3.98,3.98,0,0,1-4.235,3.961c-2.455,0-4.147-1.711-4.215-4.538Z" transform="translate(131.951 14.348)" fill="#404040"/>
  </g>
</svg>
